<svg xmlns="http://www.w3.org/2000/svg" width="15.229" height="18.892" viewBox="0 0 15.229 18.892">
  <g id="_16" data-name="16" transform="translate(0.5 0)">
    <path id="Stroke_1" data-name="Stroke 1" d="M13.213,12.6H1.016A.992.992,0,0,1,0,11.632V6.759A6.943,6.943,0,0,1,7.115,0a6.943,6.943,0,0,1,7.115,6.759v4.873A.991.991,0,0,1,13.213,12.6Z" transform="translate(0 3.344)" fill="none" stroke="#39475b" stroke-linecap="round" stroke-linejoin="round" stroke-miterlimit="10" stroke-width="1"/>
    <path id="Fill_3" data-name="Fill 3" d="M4.065,1.931A1.984,1.984,0,0,1,2.033,3.863,1.985,1.985,0,0,1,0,1.931,1.985,1.985,0,0,1,2.033,0,1.984,1.984,0,0,1,4.065,1.931" transform="translate(4.729 0)" fill="#39475b"/>
    <path id="Stroke_6" data-name="Stroke 6" d="M3.618,0A1.653,1.653,0,0,1,3.74.638,1.821,1.821,0,0,1,1.87,2.414,1.82,1.82,0,0,1,0,.638,1.669,1.669,0,0,1,.121,0" transform="translate(4.893 15.977)" fill="none" stroke="#39475b" stroke-linecap="round" stroke-linejoin="round" stroke-miterlimit="10" stroke-width="1"/>
  </g>
</svg>
