<svg xmlns="http://www.w3.org/2000/svg" width="41.704" height="47.571" viewBox="0 0 41.704 47.571">
  <g id="_6" data-name="6" transform="translate(0.476 -0.093)">
    <path id="Stroke_9" data-name="Stroke 9" d="M3.908,0,0,3.908" transform="translate(34.587 8.693)" fill="none" stroke="#3b7cff" stroke-linecap="round" stroke-linejoin="round" stroke-miterlimit="10" stroke-width="1"/>
    <path id="Stroke_1" data-name="Stroke 1" d="M.593,0V6.074" transform="translate(19.679 0.593)" fill="none" stroke="#3b7cff" stroke-linecap="round" stroke-linejoin="round" stroke-miterlimit="10" stroke-width="1"/>
    <path id="Stroke_3" data-name="Stroke 3" d="M0,.593H12.149" transform="translate(14.197)" fill="none" stroke="#3b7cff" stroke-linecap="round" stroke-linejoin="round" stroke-miterlimit="10" stroke-width="1"/>
    <path id="Stroke_5" data-name="Stroke 5" d="M40.5,20.248A20.248,20.248,0,1,1,20.248,0,20.249,20.249,0,0,1,40.5,20.248Z" transform="translate(0.024 6.668)" fill="none" stroke="#39475b" stroke-linecap="round" stroke-linejoin="round" stroke-miterlimit="10" stroke-width="1"/>
    <path id="Stroke_7" data-name="Stroke 7" d="M16.2,32.4A16.2,16.2,0,1,1,32.4,16.2,16.217,16.217,0,0,1,16.2,32.4Z" transform="translate(4.073 10.717)" fill="none" stroke="#39475b" stroke-linecap="round" stroke-linejoin="round" stroke-miterlimit="10" stroke-width="1"/>
    <path id="Stroke_11" data-name="Stroke 11" d="M0,0,4.05,4.05" transform="translate(36.471 6.668)" fill="none" stroke="#3b7cff" stroke-linecap="round" stroke-linejoin="round" stroke-miterlimit="10" stroke-width="1"/>
    <path id="Stroke_13" data-name="Stroke 13" d="M.593,0V12.149" transform="translate(19.679 14.767)" fill="none" stroke="#39475b" stroke-linecap="round" stroke-linejoin="round" stroke-miterlimit="10" stroke-width="1"/>
  </g>
</svg>
