<svg xmlns="http://www.w3.org/2000/svg" width="70.179" height="46.117" viewBox="0 0 70.179 46.117">
  <g id="_5" data-name="5" transform="translate(0.315 0.315)">
    <path id="Stroke_1" data-name="Stroke 1" d="M9.023,4.512A4.512,4.512,0,1,1,4.512,0,4.509,4.509,0,0,1,9.023,4.512Z" transform="translate(0.185 36.278)" fill="none" stroke="#39475b" stroke-linecap="round" stroke-linejoin="round" stroke-miterlimit="10" stroke-width="1"/>
    <path id="Stroke_3" data-name="Stroke 3" d="M9.023,4.512A4.512,4.512,0,1,1,4.512,0,4.509,4.509,0,0,1,9.023,4.512Z" transform="translate(18.232 15.224)" fill="none" stroke="#39475b" stroke-linecap="round" stroke-linejoin="round" stroke-miterlimit="10" stroke-width="1"/>
    <path id="Stroke_5" data-name="Stroke 5" d="M9.023,4.512A4.512,4.512,0,1,1,4.512,0,4.509,4.509,0,0,1,9.023,4.512Z" transform="translate(42.294 24.247)" fill="none" stroke="#3b7cff" stroke-linecap="round" stroke-linejoin="round" stroke-miterlimit="10" stroke-width="1"/>
    <path id="Stroke_7" data-name="Stroke 7" d="M9.023,4.512A4.512,4.512,0,1,1,4.512,0,4.509,4.509,0,0,1,9.023,4.512Z" transform="translate(60.34 0.185)" fill="none" stroke="#39475b" stroke-linecap="round" stroke-linejoin="round" stroke-miterlimit="10" stroke-width="1"/>
    <path id="Stroke_9" data-name="Stroke 9" d="M11.685,0,0,14.7" transform="translate(7.701 22.743)" fill="none" stroke="#39475b" stroke-linecap="round" stroke-linejoin="round" stroke-miterlimit="10" stroke-width="1"/>
    <path id="Stroke_11" data-name="Stroke 11" d="M15.583,6.028,0,0" transform="translate(26.938 21.384)" fill="none" stroke="#39475b" stroke-linecap="round" stroke-linejoin="round" stroke-miterlimit="10" stroke-width="1"/>
    <path id="Stroke_13" data-name="Stroke 13" d="M0,16.919,12.585,0" transform="translate(49.537 8.267)" fill="none" stroke="#3b7cff" stroke-linecap="round" stroke-linejoin="round" stroke-miterlimit="10" stroke-width="1"/>
  </g>
</svg>
