<svg xmlns="http://www.w3.org/2000/svg" width="30.188" height="45.754" viewBox="0 0 30.188 45.754">
  <g id="_2" data-name="2" transform="translate(0.48 0.479)">
    <path id="Stroke_9" data-name="Stroke 9" d="M0,1.031a11.12,11.12,0,0,0,4.709.915C9.573,1.946,9.573,0,14.438,0a11.022,11.022,0,0,1,4.689.913h.019" transform="translate(5.042 29.209)" fill="none" stroke="#3b7cff" stroke-linecap="round" stroke-linejoin="round" stroke-miterlimit="10" stroke-width="1"/>
    <path id="Stroke_1" data-name="Stroke 1" d="M25.251,3.892H3.938a3.228,3.228,0,0,1-2.884-1.78L0,0H29.187L28.133,2.111A3.223,3.223,0,0,1,25.251,3.892Z" transform="translate(0.02 0.021)" fill="none" stroke="#39475b" stroke-linecap="round" stroke-linejoin="round" stroke-miterlimit="10" stroke-width="1"/>
    <path id="Stroke_3" data-name="Stroke 3" d="M29.187,3.892H0L1.055,1.78A3.223,3.223,0,0,1,3.936,0H25.251a3.223,3.223,0,0,1,2.882,1.78Z" transform="translate(0.021 40.883)" fill="none" stroke="#39475b" stroke-linecap="round" stroke-linejoin="round" stroke-miterlimit="10" stroke-width="1"/>
    <path id="Stroke_5" data-name="Stroke 5" d="M7.783,0,6.421,12.881a5.29,5.29,0,0,1-5.234,4.631H0v1.946H1.187a5.29,5.29,0,0,1,5.234,4.631L7.783,36.971" transform="translate(17.534 3.912)" fill="none" stroke="#39475b" stroke-linecap="round" stroke-linejoin="round" stroke-miterlimit="10" stroke-width="1"/>
    <path id="Stroke_7" data-name="Stroke 7" d="M0,36.971,1.362,24.089A5.29,5.29,0,0,1,6.6,19.458H7.783V17.512H6.6a5.29,5.29,0,0,1-5.234-4.631L0,0" transform="translate(3.913 3.912)" fill="none" stroke="#39475b" stroke-linecap="round" stroke-linejoin="round" stroke-miterlimit="10" stroke-width="1"/>
  </g>
</svg>
