<svg xmlns="http://www.w3.org/2000/svg" width="57.729" height="47.415" viewBox="0 0 57.729 47.415">
  <g id="_7" data-name="7" transform="translate(-0.026 -0.026)">
    <path id="Stroke_1" data-name="Stroke 1" d="M23.207,11.6A11.6,11.6,0,1,1,11.6,0,11.6,11.6,0,0,1,23.207,11.6Z" transform="translate(10.841 0.526)" fill="none" stroke="#39475b" stroke-linecap="round" stroke-linejoin="round" stroke-miterlimit="10" stroke-width="1"/>
    <path id="Stroke_3" data-name="Stroke 3" d="M43.836,23.207V20.041C43.836,8.973,34.025,0,21.918,0S0,8.973,0,20.041v3.167" transform="translate(0.526 23.734)" fill="none" stroke="#39475b" stroke-linecap="round" stroke-linejoin="round" stroke-miterlimit="10" stroke-width="1"/>
    <path id="Stroke_5" data-name="Stroke 5" d="M0,0A9.025,9.025,0,0,1,9.025,9.025,9.025,9.025,0,0,1,0,18.05" transform="translate(40.494 5.683)" fill="none" stroke="#3b7cff" stroke-linecap="round" stroke-linejoin="round" stroke-miterlimit="10" stroke-width="1"/>
    <path id="Stroke_7" data-name="Stroke 7" d="M16.761,18.05V15.588C16.761,6.98,9.257,0,0,0" transform="translate(40.494 23.734)" fill="none" stroke="#3b7cff" stroke-linecap="round" stroke-linejoin="round" stroke-miterlimit="10" stroke-width="1"/>
  </g>
</svg>
