<svg xmlns="http://www.w3.org/2000/svg" width="38.403" height="46.714" viewBox="0 0 38.403 46.714">
  <g id="Icon" transform="translate(0.5 0.5)">
    <path id="Stroke_1" data-name="Stroke 1" d="M33.241,29V12.672a4.157,4.157,0,0,0-1.2-2.93L23.518,1.225A4.129,4.129,0,0,0,20.567,0H6.233A6.251,6.251,0,0,0,0,6.231V35.319A6.237,6.237,0,0,0,6.233,41.55H20.693" fill="none" stroke="#39475b" stroke-linecap="round" stroke-linejoin="round" stroke-miterlimit="10" stroke-width="1"/>
    <path id="Stroke_3" data-name="Stroke 3" d="M18.181,9.09A9.09,9.09,0,1,1,9.09,0,9.09,9.09,0,0,1,18.181,9.09Z" transform="translate(19.222 27.534)" fill="none" stroke="#3b7cff" stroke-linecap="round" stroke-linejoin="round" stroke-miterlimit="10" stroke-width="1"/>
    <path id="Stroke_5" data-name="Stroke 5" d="M0,0V6.491" transform="translate(28.314 33.379)" fill="none" stroke="#3b7cff" stroke-linecap="round" stroke-linejoin="round" stroke-miterlimit="10" stroke-width="1"/>
    <path id="Stroke_7" data-name="Stroke 7" d="M6.491,0H0" transform="translate(25.068 36.624)" fill="none" stroke="#3b7cff" stroke-linecap="round" stroke-linejoin="round" stroke-miterlimit="10" stroke-width="1"/>
    <path id="Stroke_9" data-name="Stroke 9" d="M0,0H8.144" transform="translate(9.489 13.693)" fill="none" stroke="#39475b" stroke-linecap="round" stroke-linejoin="round" stroke-miterlimit="10" stroke-width="1"/>
    <path id="Stroke_11" data-name="Stroke 11" d="M0,0H12.713" transform="translate(9.489 22.383)" fill="none" stroke="#39475b" stroke-linecap="round" stroke-linejoin="round" stroke-miterlimit="10" stroke-width="1"/>
  </g>
</svg>
