<svg xmlns="http://www.w3.org/2000/svg" width="21.521" height="23.012" viewBox="0 0 21.521 23.012">
  <path id="_8" data-name="8" d="M7.365,14.453V2.655A2.621,2.621,0,0,1,9.274.074a2.534,2.534,0,0,1,2.392.669A2.5,2.5,0,0,1,12.4,2.516V7.763a1.258,1.258,0,0,0,.778,1.163l5.592,2.312a2.518,2.518,0,0,1,1.483,2.922l-1.681,6.882A1.259,1.259,0,0,1,17.346,22H8.326a1.263,1.263,0,0,1-.89-.368L.823,15.018a2.653,2.653,0,0,1-.23-3.585,2.46,2.46,0,0,1,1.879-.843,2.457,2.457,0,0,1,1.773.742Z" transform="translate(0.661 0.512)" fill="none" stroke="#39475b" stroke-linecap="round" stroke-linejoin="round" stroke-miterlimit="10" stroke-width="1"/>
</svg>
