<svg xmlns="http://www.w3.org/2000/svg" width="22.292" height="22.084" viewBox="0 0 22.292 22.084">
  <g id="_10" data-name="10" transform="translate(0.48 0.479)">
    <path id="Stroke_1" data-name="Stroke 1" d="M0,3.667,2.75,0,5.5,3.667Z" transform="translate(10.105 0.021)" fill="none" stroke="#39475b" stroke-linecap="round" stroke-linejoin="round" stroke-miterlimit="10" stroke-width="1"/>
    <path id="Stroke_3" data-name="Stroke 3" d="M12.834,0A12.826,12.826,0,0,1,0,12.748" transform="translate(0.02 3.774)" fill="none" stroke="#39475b" stroke-linecap="round" stroke-linejoin="round" stroke-miterlimit="10" stroke-width="1"/>
    <path id="Stroke_5" data-name="Stroke 5" d="M4.584,2.292A2.292,2.292,0,1,1,2.292,0,2.291,2.291,0,0,1,4.584,2.292Z" transform="translate(0.021 7.354)" fill="none" stroke="#39475b" stroke-linecap="round" stroke-linejoin="round" stroke-miterlimit="10" stroke-width="1"/>
    <path id="Stroke_7" data-name="Stroke 7" d="M4.584,2.292A2.292,2.292,0,1,1,2.292,0,2.291,2.291,0,0,1,4.584,2.292Z" transform="translate(11.021 16.522)" fill="none" stroke="#39475b" stroke-linecap="round" stroke-linejoin="round" stroke-miterlimit="10" stroke-width="1"/>
    <path id="Stroke_9" data-name="Stroke 9" d="M3.667,0,0,3.667" transform="translate(17.438 8.271)" fill="none" stroke="#39475b" stroke-linecap="round" stroke-linejoin="round" stroke-miterlimit="10" stroke-width="1"/>
    <path id="Stroke_11" data-name="Stroke 11" d="M0,0,3.667,3.667" transform="translate(17.438 8.271)" fill="none" stroke="#39475b" stroke-linecap="round" stroke-linejoin="round" stroke-miterlimit="10" stroke-width="1"/>
  </g>
</svg>
