<svg xmlns="http://www.w3.org/2000/svg" width="22" height="22" viewBox="0 0 22 22">
  <g id="Icon" transform="translate(0.5 0.5)">
    <g id="Group_5" data-name="Group 5" transform="translate(7)">
      <path id="Stroke_1" data-name="Stroke 1" d="M0,14H14V0H0Z" fill="none" stroke="#39475b" stroke-linecap="round" stroke-linejoin="round" stroke-miterlimit="10" stroke-width="1"/>
      <path id="Stroke_3" data-name="Stroke 3" d="M0,5H5V0H0Z" transform="translate(9 16)" fill="none" stroke="#39475b" stroke-linecap="round" stroke-linejoin="round" stroke-miterlimit="10" stroke-width="1"/>
      <path id="Stroke_4" data-name="Stroke 4" d="M0,5H5V0H0Z" transform="translate(1 16)" fill="none" stroke="#39475b" stroke-linecap="round" stroke-linejoin="round" stroke-miterlimit="10" stroke-width="1"/>
    </g>
    <path id="Stroke_6" data-name="Stroke 6" d="M2.5,5H0V0H2.5" transform="translate(2 2)" fill="none" stroke="#39475b" stroke-linecap="round" stroke-linejoin="round" stroke-miterlimit="10" stroke-width="1"/>
    <path id="Stroke_7" data-name="Stroke 7" d="M0,4H4V0H0Z" transform="translate(12 5)" fill="none" stroke="#39475b" stroke-linecap="round" stroke-linejoin="round" stroke-miterlimit="10" stroke-width="1"/>
    <g id="Group_12" data-name="Group 12">
      <path id="Stroke_8" data-name="Stroke 8" d="M0,5H5V0H0Z" transform="translate(0 16)" fill="none" stroke="#39475b" stroke-linecap="round" stroke-linejoin="round" stroke-miterlimit="10" stroke-width="1"/>
      <path id="Stroke_10" data-name="Stroke 10" d="M5,.5H0" transform="translate(0 8.5)" fill="none" stroke="#39475b" stroke-linecap="round" stroke-linejoin="round" stroke-miterlimit="10" stroke-width="1"/>
      <path id="Stroke_11" data-name="Stroke 11" d="M0,14V0H5" fill="none" stroke="#39475b" stroke-linecap="round" stroke-linejoin="round" stroke-miterlimit="10" stroke-width="1"/>
    </g>
    <path id="Stroke_13" data-name="Stroke 13" d="M0,2.5V0H2.5" transform="translate(2 11)" fill="none" stroke="#39475b" stroke-linecap="round" stroke-linejoin="round" stroke-miterlimit="10" stroke-width="1"/>
  </g>
</svg>
