<svg xmlns="http://www.w3.org/2000/svg" width="24.158" height="19.947" viewBox="0 0 24.158 19.947">
  <g id="_7" data-name="7" transform="translate(-0.026 -0.026)">
    <path id="Stroke_1" data-name="Stroke 1" d="M9.474,4.737A4.737,4.737,0,1,1,4.737,0,4.737,4.737,0,0,1,9.474,4.737Z" transform="translate(4.737 0.526)" fill="none" stroke="#39475b" stroke-linecap="round" stroke-linejoin="round" stroke-miterlimit="10" stroke-width="1"/>
    <path id="Stroke_3" data-name="Stroke 3" d="M17.895,9.474V8.181C17.895,3.663,13.889,0,8.947,0S0,3.663,0,8.181V9.474" transform="translate(0.526 10)" fill="none" stroke="#39475b" stroke-linecap="round" stroke-linejoin="round" stroke-miterlimit="10" stroke-width="1"/>
    <path id="Stroke_5" data-name="Stroke 5" d="M0,0A3.684,3.684,0,0,1,0,7.368" transform="translate(16.842 2.632)" fill="none" stroke="#39475b" stroke-linecap="round" stroke-linejoin="round" stroke-miterlimit="10" stroke-width="1"/>
    <path id="Stroke_7" data-name="Stroke 7" d="M6.842,7.368V6.363A6.616,6.616,0,0,0,0,0" transform="translate(16.842 10)" fill="none" stroke="#39475b" stroke-linecap="round" stroke-linejoin="round" stroke-miterlimit="10" stroke-width="1"/>
  </g>
</svg>
