<svg xmlns="http://www.w3.org/2000/svg" width="28.971" height="23.756" viewBox="0 0 28.971 23.756">
  <g id="_4" data-name="4" transform="translate(0.5 0.332)">
    <path id="Stroke_1" data-name="Stroke 1" d="M12.563,0A15.616,15.616,0,0,0,0,6.637a15.616,15.616,0,0,0,12.563,6.637A15.616,15.616,0,0,0,25.126,6.637,15.616,15.616,0,0,0,12.563,0Z" transform="translate(1.422 4.909)" fill="none" stroke="#39475b" stroke-linecap="round" stroke-linejoin="round" stroke-miterlimit="10" stroke-width="1"/>
    <path id="Stroke_3" data-name="Stroke 3" d="M8.533,4.267A4.267,4.267,0,1,1,4.267,0,4.267,4.267,0,0,1,8.533,4.267Z" transform="translate(9.956 7.279)" fill="none" stroke="#39475b" stroke-linecap="round" stroke-linejoin="round" stroke-miterlimit="10" stroke-width="1"/>
    <path id="Stroke_5" data-name="Stroke 5" d="M0,1.9A1.9,1.9,0,0,1,1.9,0" transform="translate(12.326 9.65)" fill="none" stroke="#39475b" stroke-linecap="round" stroke-linejoin="round" stroke-miterlimit="10" stroke-width="1"/>
    <path id="Stroke_7" data-name="Stroke 7" d="M3.793,0H0V3.793" transform="translate(0 0.168)" fill="none" stroke="#39475b" stroke-linecap="round" stroke-linejoin="round" stroke-miterlimit="10" stroke-width="1"/>
    <path id="Stroke_9" data-name="Stroke 9" d="M0,0H3.793V3.793" transform="translate(24.178 0.168)" fill="none" stroke="#39475b" stroke-linecap="round" stroke-linejoin="round" stroke-miterlimit="10" stroke-width="1"/>
    <path id="Stroke_11" data-name="Stroke 11" d="M0,3.793H3.793V0" transform="translate(24.178 19.131)" fill="none" stroke="#39475b" stroke-linecap="round" stroke-linejoin="round" stroke-miterlimit="10" stroke-width="1"/>
    <path id="Stroke_13" data-name="Stroke 13" d="M3.793,3.793H0V0" transform="translate(0 19.131)" fill="none" stroke="#39475b" stroke-linecap="round" stroke-linejoin="round" stroke-miterlimit="10" stroke-width="1"/>
  </g>
</svg>
