<svg xmlns="http://www.w3.org/2000/svg" width="13.62" height="15.353" viewBox="0 0 13.62 15.353">
  <g id="_6" data-name="6" transform="translate(0.376 -0.193)">
    <path id="Stroke_9" data-name="Stroke 9" d="M1.221,0,0,1.221" transform="translate(10.824 3.124)" fill="none" stroke="#39475b" stroke-linecap="round" stroke-linejoin="round" stroke-miterlimit="10" stroke-width="0.8"/>
    <path id="Stroke_1" data-name="Stroke 1" d="M.593,0V1.9" transform="translate(5.758 0.593)" fill="none" stroke="#39475b" stroke-linecap="round" stroke-linejoin="round" stroke-miterlimit="10" stroke-width="0.8"/>
    <path id="Stroke_3" data-name="Stroke 3" d="M0,.593H3.8" transform="translate(4.453)" fill="none" stroke="#39475b" stroke-linecap="round" stroke-linejoin="round" stroke-miterlimit="10" stroke-width="0.8"/>
    <path id="Stroke_5" data-name="Stroke 5" d="M12.655,6.327A6.327,6.327,0,1,1,6.327,0,6.328,6.328,0,0,1,12.655,6.327Z" transform="translate(0.024 2.491)" fill="none" stroke="#39475b" stroke-linecap="round" stroke-linejoin="round" stroke-miterlimit="10" stroke-width="0.8"/>
    <path id="Stroke_7" data-name="Stroke 7" d="M5.062,10.124a5.062,5.062,0,1,1,5.062-5.062A5.068,5.068,0,0,1,5.062,10.124Z" transform="translate(1.289 3.757)" fill="none" stroke="#39475b" stroke-linecap="round" stroke-linejoin="round" stroke-miterlimit="10" stroke-width="0.8"/>
    <path id="Stroke_11" data-name="Stroke 11" d="M0,0,1.265,1.265" transform="translate(11.413 2.491)" fill="none" stroke="#39475b" stroke-linecap="round" stroke-linejoin="round" stroke-miterlimit="10" stroke-width="0.8"/>
    <path id="Stroke_13" data-name="Stroke 13" d="M.593,0V3.8" transform="translate(5.758 5.022)" fill="none" stroke="#39475b" stroke-linecap="round" stroke-linejoin="round" stroke-miterlimit="10" stroke-width="0.8"/>
  </g>
</svg>
