<svg xmlns="http://www.w3.org/2000/svg" width="22.799" height="22.591" viewBox="0 0 22.799 22.591">
  <g id="_10" data-name="10" transform="translate(0.48 0.479)">
    <path id="Stroke_1" data-name="Stroke 1" d="M0,3.755,2.816,0,5.632,3.755Z" transform="translate(10.347 0.021)" fill="none" stroke="#39475b" stroke-linecap="round" stroke-linejoin="round" stroke-miterlimit="10" stroke-width="1"/>
    <path id="Stroke_3" data-name="Stroke 3" d="M13.142,0A13.134,13.134,0,0,1,0,13.054" transform="translate(0.02 3.864)" fill="none" stroke="#39475b" stroke-linecap="round" stroke-linejoin="round" stroke-miterlimit="10" stroke-width="1"/>
    <path id="Stroke_5" data-name="Stroke 5" d="M4.694,2.347A2.347,2.347,0,1,1,2.347,0,2.347,2.347,0,0,1,4.694,2.347Z" transform="translate(0.021 7.531)" fill="none" stroke="#39475b" stroke-linecap="round" stroke-linejoin="round" stroke-miterlimit="10" stroke-width="1"/>
    <path id="Stroke_7" data-name="Stroke 7" d="M4.694,2.347A2.347,2.347,0,1,1,2.347,0,2.347,2.347,0,0,1,4.694,2.347Z" transform="translate(11.286 16.918)" fill="none" stroke="#39475b" stroke-linecap="round" stroke-linejoin="round" stroke-miterlimit="10" stroke-width="1"/>
    <path id="Stroke_9" data-name="Stroke 9" d="M3.755,0,0,3.755" transform="translate(17.857 8.469)" fill="none" stroke="#39475b" stroke-linecap="round" stroke-linejoin="round" stroke-miterlimit="10" stroke-width="1"/>
    <path id="Stroke_11" data-name="Stroke 11" d="M0,0,3.755,3.755" transform="translate(17.857 8.469)" fill="none" stroke="#39475b" stroke-linecap="round" stroke-linejoin="round" stroke-miterlimit="10" stroke-width="1"/>
  </g>
</svg>
